<svg xmlns="http://www.w3.org/2000/svg" xmlns:xlink="http://www.w3.org/1999/xlink" width="124" height="72"><defs><path id="a" d="M.575.655h2.811V2.1H.576z"/><path id="c" d="M0 .872h4.888V5.76H0z"/><path id="e" d="M.171.12h36.511v42.29H.172z"/><path id="g" d="M0 71.101h123.715V0H0z"/></defs><g fill="none" fill-rule="evenodd"><path fill="#FF9035" d="M89.81 2.95a.724.724 0 0 0-.722.722v1.366c0 .398.325.722.722.722a.723.723 0 0 0 .721-.722V3.672a.723.723 0 0 0-.721-.722m5.31 5.36a.723.723 0 0 0-.722-.722h-1.367a.724.724 0 0 0-.722.722c0 .396.325.72.722.72h1.367a.723.723 0 0 0 .721-.72m-5.359 5.31a.723.723 0 0 0 .721-.723V11.53a.723.723 0 0 0-.721-.72.723.723 0 0 0-.721.72v1.367c0 .398.325.722.721.722M84.45 8.26c0 .397.324.722.722.722h1.367a.724.724 0 0 0 .722-.722.723.723 0 0 0-.722-.721h-1.367a.723.723 0 0 0-.722.72m9.124-3.729a.722.722 0 0 0-1.02 0l-.967.966a.726.726 0 0 0 0 1.021c.282.28.74.28 1.022 0l.965-.966a.723.723 0 0 0 0-1.02m-.034 7.543a.725.725 0 0 0 0-1.02l-.966-.967a.726.726 0 0 0-1.022 0 .723.723 0 0 0 0 1.02l.967.967a.723.723 0 0 0 1.02 0m-7.544-.034a.723.723 0 0 0 1.02 0l.967-.966a.724.724 0 0 0 0-1.022.725.725 0 0 0-1.02 0l-.967.966a.725.725 0 0 0 0 1.021m.035-7.544a.723.723 0 0 0 0 1.02l.966.967c.281.28.74.28 1.022 0a.726.726 0 0 0 0-1.021l-.968-.966a.722.722 0 0 0-1.02 0"/><path fill="#74A4CD" d="M118.405 48.38a.725.725 0 0 0-.722.721v1.367c0 .397.326.722.722.722a.724.724 0 0 0 .721-.722v-1.367a.724.724 0 0 0-.72-.722"/><g transform="translate(120.329 52.361)"><mask id="b" fill="#fff"><use xlink:href="#a"/></mask><path fill="#74A4CD" d="M3.386 1.377a.725.725 0 0 0-.722-.722H1.297a.724.724 0 0 0-.722.722c0 .397.325.722.722.722h1.367a.725.725 0 0 0 .722-.722" mask="url(#b)"/></g><path fill="#74A4CD" d="M118.355 59.049a.725.725 0 0 0 .722-.722V56.96a.725.725 0 0 0-.722-.722.724.724 0 0 0-.72.722v1.367c0 .396.324.722.72.722m-5.31-5.359c0 .396.326.721.722.721h1.367a.724.724 0 0 0 .722-.722.724.724 0 0 0-.722-.722h-1.367a.725.725 0 0 0-.722.722m9.125-3.729a.723.723 0 0 0-1.02 0l-.968.966a.725.725 0 0 0 0 1.02c.282.28.74.28 1.022 0l.966-.966a.725.725 0 0 0 0-1.02m-.035 7.544a.723.723 0 0 0 0-1.021l-.966-.967a.724.724 0 0 0-1.022 0 .725.725 0 0 0 0 1.021l.967.967a.723.723 0 0 0 1.02 0m-7.544-.035a.723.723 0 0 0 1.02 0l.968-.967a.725.725 0 0 0 0-1.02.726.726 0 0 0-1.021 0l-.967.966a.725.725 0 0 0 0 1.02m.036-7.544a.723.723 0 0 0 0 1.02l.965.968c.282.28.74.28 1.022 0a.725.725 0 0 0 0-1.021l-.967-.967a.723.723 0 0 0-1.02 0"/><path fill="#FF9035" d="M22.564 13.426a.724.724 0 0 0-.72.722v1.367c0 .396.324.722.72.722a.724.724 0 0 0 .721-.722v-1.367a.724.724 0 0 0-.72-.722m5.309 5.359a.724.724 0 0 0-.722-.722h-1.367a.724.724 0 0 0-.722.722c0 .397.325.722.722.722h1.367a.724.724 0 0 0 .722-.722m-5.36 5.31a.724.724 0 0 0 .722-.722v-1.367a.724.724 0 0 0-.722-.722.724.724 0 0 0-.72.722v1.367c0 .397.324.722.72.722m-5.309-5.359c0 .396.325.722.721.722h1.367a.724.724 0 0 0 .722-.722.724.724 0 0 0-.722-.722h-1.367a.724.724 0 0 0-.72.722m9.124-3.73a.723.723 0 0 0-1.021 0l-.967.966a.723.723 0 0 0 0 1.021c.281.28.74.28 1.02 0l.967-.966a.725.725 0 0 0 0-1.021m-.035 7.544a.723.723 0 0 0 0-1.02l-.966-.967a.724.724 0 0 0-1.022 0 .725.725 0 0 0 0 1.02l.968.967c.28.281.74.281 1.02 0m-7.544-.035c.28.281.74.281 1.02 0l.968-.966a.725.725 0 0 0 0-1.021.726.726 0 0 0-1.022 0l-.966.966a.723.723 0 0 0 0 1.021m.035-7.545a.725.725 0 0 0 0 1.021l.965.967c.282.28.741.28 1.022 0a.723.723 0 0 0 0-1.02l-.966-.967a.723.723 0 0 0-1.021 0"/><path fill="#74A4CD" d="M35.843 2.529h-2.106V.42a.42.42 0 1 0-.841 0v2.108H30.79a.422.422 0 0 0 0 .842h2.106v2.108a.42.42 0 1 0 .841 0V3.37h2.106a.42.42 0 1 0 0-.842"/><path fill="#FF9035" d="M10.395 51.58H7.668v-2.727a.544.544 0 1 0-1.088 0v2.728H3.853a.545.545 0 1 0 0 1.09H6.58V55.4a.544.544 0 1 0 1.088 0v-2.728h2.727a.545.545 0 0 0 0-1.091"/><path fill="#74A4CD" d="M115.064 19.621h-2.722v-2.724a.544.544 0 1 0-1.088 0v2.724h-2.722a.544.544 0 1 0 0 1.09h2.722v2.723a.543.543 0 1 0 1.088 0V20.71h2.722a.544.544 0 0 0 0-1.089"/><g transform="translate(0 28.69)"><mask id="d" fill="#fff"><use xlink:href="#c"/></mask><path fill="#74A4CD" d="M4.888 3.316a2.444 2.444 0 1 1-4.887.001 2.444 2.444 0 0 1 4.887 0" mask="url(#d)"/></g><path fill="#FF9035" d="M111.797 39.54a2.444 2.444 0 1 1-4.887 0 2.444 2.444 0 0 1 4.887 0"/><path fill="#FFC59B" d="M90.444 28.81H79.24c-2.53 0-4.583 3.155-4.583 7.047 0 3.894 2.053 7.05 4.583 7.05h11.203m-1.908 14.096h-9.847c-2.225 0-4.03 3.157-4.03 7.05s1.805 7.048 4.03 7.048h9.847"/><path fill="#FFC59B" d="M91.43 42.872H79.527c-2.69 0-4.87 3.155-4.87 7.048 0 3.893 2.18 7.049 4.87 7.049h11.901"/><g transform="translate(47.342 28.69)"><mask id="f" fill="#fff"><use xlink:href="#e"/></mask><path fill="#FFC59B" d="M.171 18.469v5.592c0 10.092 8.455 18.35 18.788 18.35h15.176c1.4 0 2.547-1.12 2.547-2.488V2.607c0-1.368-1.147-2.488-2.547-2.488H18.959C8.626.12.171 8.377.171 18.47" mask="url(#f)"/></g><mask id="h" fill="#fff"><use xlink:href="#g"/></mask><path fill="#FFC59B" d="M23.19 66.632h31.43V36.893H23.19z" mask="url(#h)"/><path fill="#FFDAC0" d="M23.19 56.267h31.43V36.893H23.19zm74.256-20.409c0-3.893-2.98-7.048-6.656-7.048h-9.311c-3.676 0-6.656 3.155-6.656 7.048 0 3.893 2.98 7.048 6.656 7.048h9.31c3.678 0 6.657-3.155 6.657-7.048m0 28.195c0-3.893-2.98-7.05-6.656-7.05h-9.311c-3.676 0-6.656 3.157-6.656 7.05s2.98 7.048 6.656 7.048h9.31c3.678 0 6.657-3.155 6.657-7.048m4.101-14.098c0-3.893-2.98-7.049-6.655-7.049H81.478c-3.675 0-6.655 3.156-6.655 7.05 0 3.892 2.98 7.047 6.655 7.047h13.414c3.676 0 6.655-3.155 6.655-7.048" mask="url(#h)"/><path fill="#FFDAC0" d="M69.942 8.459c-3.515-1.403-7.339.369-8.539 3.959l-7.267 21.736c-1.201 3.59.676 7.639 4.192 9.044 3.515 1.404 7.339-.368 8.54-3.958l7.266-21.738c1.202-3.589-.676-7.638-4.192-9.043" mask="url(#h)"/><path fill="#FFDAC0" d="M44.196 59.13l1.796-7.358c-1.614-10.051 7.396-22.979 20.885-22.905l3.477.019-5.173 18.03c-1.23 4.289-5.248 10.087-10.152 11.657-4.66 1.493-10.833.558-10.833.558" mask="url(#h)"/><path fill="#007FD0" d="M41.678 70.449H25.53a3.04 3.04 0 0 1-3.04-3.04V36.734a3.04 3.04 0 0 1 3.04-3.04h16.148a3.04 3.04 0 0 1 3.04 3.04V67.41a3.04 3.04 0 0 1-3.04 3.04" mask="url(#h)"/></g></svg>